<svg width="276" height="242" xmlns="http://www.w3.org/2000/svg">
 <defs>
  <filter color-interpolation-filters="sRGB" filterUnits="userSpaceOnUse" height="242" width="276" y="0" x="0" id="filter0_d_189_10234">
   <feGaussianBlur stdDeviation="22"/>
  </filter>
  <linearGradient y2="-0.13457" x2="0.262209" y1="1.025307" x1="0.637953" id="paint0_linear_189_10234">
   <stop stop-color="#B3DAFE"/>
   <stop stop-opacity="0" stop-color="#EEF7FF" offset="1"/>
  </linearGradient>
 </defs>
 <g>
  <title>background</title>
  <rect fill="none" id="canvas_background" height="402" width="582" y="-1" x="-1"/>
 </g>
 <g>
  <title>Layer 1</title>
  <g clip-path="url(#clip0_189_11287)" id="Frame">
   <g filter="url(#filter0_d_189_10234)" id="Vector">
    <path id="svg_1" fill="white" d="m229.964,116.519c-0.75,-16.8032 -13.033,-30.3603 -28.862,-33.3786c0.237,-1.7541 0.323,-3.5532 0.241,-5.3851c-0.737,-16.5016 -14.71,-29.282 -31.21,-28.5443c-6.441,0.2869 -12.316,2.5922 -17.038,6.2785c-1.871,-8.6104 -9.72,-14.8766 -18.817,-14.4709c-7.079,0.3156 -13.045,4.5901 -15.86,10.5899c-6.651,-4.6536 -14.828,-7.2355 -23.564,-6.8441c-21.0602,0.9406 -37.3671,18.7761 -36.4266,39.837c0.1168,2.6127 0.4937,5.1515 1.1043,7.5941c-10.7872,4.9056 -18.0627,16.0055 -17.5013,28.5705c0.7376,16.502 14.7108,29.282 31.2102,28.545c3.5097,-0.158 6.8514,-0.914 9.9288,-2.166c-0.0328,0.83 -0.0308,1.668 0.0061,2.514c0.7376,16.502 14.7108,29.282 31.2105,28.544c7.466,-0.334 14.633,-3.508 19.894,-8.815c0.961,-0.969 1.936,-2.041 2.821,-3.191c2.609,4.183 6.086,8.783 10.71,13.246c8.742,8.434 18.067,12.983 24.928,15.457c1.545,0.557 2.803,-1.332 1.687,-2.535c-4.926,-5.312 -11.04,-13.479 -15.08,-24.723c-1.061,-2.953 -1.869,-5.815 -2.481,-8.545c3.27,5.482 9.256,9.156 16.102,9.156c9.027,0 16.561,-6.385 18.341,-14.885c1.52,0.248 3.075,0.373 4.686,0.301c19.638,-0.879 34.847,-17.512 33.97,-37.15z"/>
    <path id="svg_2" stroke="url(#paint0_linear_189_10234)" d="m176.426,193.365c1.116,1.203 -0.142,3.092 -1.687,2.535l1.687,-2.535zm0,0c-4.926,-5.312 -11.04,-13.479 -15.08,-24.723l15.08,24.723zm26.18,-109.2917l-0.063,0.4695l0.465,0.0887c15.607,2.976 27.717,16.3433 28.456,32.9095c0.865,19.363 -14.13,35.762 -33.492,36.629c-1.57,0.07 -3.09,-0.052 -4.583,-0.296l-0.472,-0.077l-0.098,0.468c-1.733,8.274 -9.067,14.488 -17.852,14.488c-6.662,0 -12.489,-3.575 -15.673,-8.912l-0.917,0.366c0.617,2.748 1.43,5.631 2.498,8.604c4.069,11.323 10.225,19.547 15.184,24.894l0,0c0.755,0.813 -0.091,2.106 -1.15,1.724l0,0c-6.815,-2.456 -16.072,-6.973 -24.751,-15.346c-4.591,-4.43 -8.043,-8.997 -10.632,-13.15l-0.381,-0.611l-0.44,0.57c-0.869,1.129 -1.829,2.185 -2.78,3.144c-5.173,5.218 -12.221,8.339 -19.562,8.668c-16.223,0.725 -29.9624,-11.841 -30.6879,-28.067c-0.0363,-0.832 -0.0383,-1.657 -0.0061,-2.473l0.0306,-0.775l-0.7186,0.293c-3.0252,1.23 -6.3108,1.974 -9.7627,2.129c-16.2235,0.726 -29.9632,-11.841 -30.6884,-28.067c-0.552,-12.354 6.601,-23.2694 17.2088,-28.0934l0.3791,-0.1724l-0.101,-0.404c-0.6025,-2.4104 -0.9746,-4.9161 -1.0899,-7.4951c-0.9281,-20.7851 15.1652,-38.3869 35.9494,-39.3152l0.0001,0c8.6226,-0.3862 16.6916,2.1615 23.2546,6.7543l0.487,0.3407l0.253,-0.538c2.739,-5.8384 8.544,-9.9958 15.429,-10.3028c8.85,-0.3947 16.486,5.7011 18.306,14.0776l0.169,0.7776l0.628,-0.4896c4.643,-3.6246 10.418,-5.8911 16.752,-6.1732l-0.022,-0.4995l0.022,0.4995c16.224,-0.7253 29.964,11.8413 30.689,28.0671c0.08,1.8017 -0.004,3.5708 -0.238,5.2957z"/>
   </g>
   <!-- <path fill="#434553" d="m90.95617,99.74l-4.8,0l0,-1.74l11.58003,0l0,1.74l-4.80003,0l0,12.26l-1.98,0l0,-12.26zm10.26433,3.44c0.3334,-0.61333 0.8267,-1.08 1.48,-1.4c0.6534,-0.32 1.4467,-0.48 2.38,-0.48l0,1.86c-0.1066,-0.01333 -0.2533,-0.02 -0.44,-0.02c-1.04,0 -1.86,0.31333 -2.46,0.94c-0.5866,0.61333 -0.88,1.49333 -0.88,2.64l0,5.28l-1.92,0l0,-10.6l1.84,0l0,1.78zm16.0361,-1.78l-5.14,11.66c-0.4533,1.08 -0.9866,1.84 -1.6,2.28c-0.6,0.44 -1.3266,0.66 -2.18,0.66c-0.52,0 -1.0266,-0.0867 -1.52,-0.26c-0.48,-0.16 -0.88,-0.4 -1.2,-0.72l0.82,-1.44c0.5467,0.52 1.18,0.78 1.9,0.78c0.4667,0 0.8534,-0.1267 1.16,-0.38c0.32,-0.24 0.6067,-0.66 0.86,-1.26l0.34,-0.74l-4.68,-10.58l2,0l3.7,8.48l3.66,-8.48l1.88,0zm11.023,-0.1c1.4667,0 2.5867,0.36 3.36,1.08c0.7867,0.72 1.18,1.79333 1.18,3.22l0,6.4l-1.82,0l0,-1.4c-0.32,0.4933 -0.78,0.8733 -1.38,1.14c-0.5867,0.2533 -1.2867,0.38 -2.1,0.38c-1.1867,0 -2.14,-0.2867 -2.86,-0.86c-0.7067,-0.5733 -1.06,-1.3267 -1.06,-2.26c0,-0.9333 0.34,-1.68 1.02,-2.24c0.68,-0.5733 1.76,-0.86 3.24,-0.86l3.04,0l0,-0.38c0,-0.82667 -0.24,-1.46 -0.72,-1.9c-0.48,-0.44 -1.1867,-0.66 -2.12,-0.66c-0.6267,0 -1.24,0.10667 -1.84,0.32c-0.6,0.2 -1.1067,0.47333 -1.52,0.82l-0.8,-1.44c0.5467,-0.44 1.2,-0.77333 1.96,-1c0.76,-0.24 1.5667,-0.36 2.42,-0.36zm-0.44,9.34c0.7333,0 1.3667,-0.16 1.9,-0.48c0.5333,-0.3333 0.92,-0.8 1.16,-1.4l0,-1.48l-2.96,0c-1.6267,0 -2.44,0.5467 -2.44,1.64c0,0.5333 0.2067,0.9533 0.62,1.26c0.4133,0.3067 0.9867,0.46 1.72,0.46zm18.7317,-9.24l0,9.16c0,1.8533 -0.46,3.22 -1.38,4.1c-0.92,0.8933 -2.2933,1.34 -4.12,1.34c-1,0 -1.9533,-0.14 -2.86,-0.42c-0.9066,-0.2667 -1.64,-0.6533 -2.2,-1.16l0.92,-1.48c0.4934,0.4267 1.1,0.76 1.82,1c0.7334,0.2533 1.4867,0.38 2.26,0.38c1.24,0 2.1534,-0.2933 2.74,-0.88c0.6,-0.5867 0.9,-1.48 0.9,-2.68l0,-0.84c-0.4533,0.5467 -1.0133,0.96 -1.68,1.24c-0.6533,0.2667 -1.3666,0.4 -2.14,0.4c-1.0133,0 -1.9333,-0.2133 -2.76,-0.64c-0.8133,-0.44 -1.4533,-1.0467 -1.92,-1.82c-0.4666,-0.7867 -0.7,-1.68 -0.7,-2.68c0,-1 0.2334,-1.88667 0.7,-2.66c0.4667,-0.78667 1.1067,-1.39333 1.92,-1.82c0.8267,-0.42667 1.7467,-0.64 2.76,-0.64c0.8,0 1.54,0.14667 2.22,0.44c0.6934,0.29333 1.26,0.72667 1.7,1.3l0,-1.64l1.82,0zm-5.52,8.48c0.6934,0 1.3134,-0.1467 1.86,-0.44c0.56,-0.2933 0.9934,-0.7 1.3,-1.22c0.32,-0.5333 0.48,-1.1333 0.48,-1.8c0,-1.02667 -0.34,-1.85333 -1.02,-2.48c-0.68,-0.64 -1.5533,-0.96 -2.62,-0.96c-1.08,0 -1.96,0.32 -2.64,0.96c-0.68,0.62667 -1.02,1.45333 -1.02,2.48c0,0.6667 0.1534,1.2667 0.46,1.8c0.32,0.52 0.7534,0.9267 1.3,1.22c0.56,0.2933 1.1934,0.44 1.9,0.44zm13.0486,-8.58c1.4667,0 2.5867,0.36 3.36,1.08c0.7867,0.72 1.18,1.79333 1.18,3.22l0,6.4l-1.82,0l0,-1.4c-0.32,0.4933 -0.78,0.8733 -1.38,1.14c-0.5866,0.2533 -1.2866,0.38 -2.1,0.38c-1.1866,0 -2.14,-0.2867 -2.86,-0.86c-0.7066,-0.5733 -1.06,-1.3267 -1.06,-2.26c0,-0.9333 0.34,-1.68 1.02,-2.24c0.68,-0.5733 1.76,-0.86 3.24,-0.86l3.04,0l0,-0.38c0,-0.82667 -0.24,-1.46 -0.72,-1.9c-0.48,-0.44 -1.1866,-0.66 -2.12,-0.66c-0.6266,0 -1.24,0.10667 -1.84,0.32c-0.6,0.2 -1.1066,0.47333 -1.52,0.82l-0.8,-1.44c0.5467,-0.44 1.2,-0.77333 1.96,-1c0.76,-0.24 1.5667,-0.36 2.42,-0.36zm-0.44,9.34c0.7334,0 1.3667,-0.16 1.9,-0.48c0.5334,-0.3333 0.92,-0.8 1.16,-1.4l0,-1.48l-2.96,0c-1.6266,0 -2.44,0.5467 -2.44,1.64c0,0.5333 0.2067,0.9533 0.62,1.26c0.4134,0.3067 0.9867,0.46 1.72,0.46zm8.5331,-9.24l1.92,0l0,10.6l-1.92,0l0,-10.6zm0.96,-2.04c-0.3733,0 -0.6866,-0.12 -0.94,-0.36c-0.24,-0.24 -0.36,-0.53333 -0.36,-0.88c0,-0.34667 0.12,-0.64 0.36,-0.88c0.2534,-0.25333 0.5667,-0.38 0.94,-0.38c0.3734,0 0.68,0.12 0.92,0.36c0.2534,0.22667 0.38,0.51333 0.38,0.86c0,0.36 -0.1266,0.66667 -0.38,0.92c-0.24,0.24 -0.5466,0.36 -0.92,0.36zm10.286,1.94c1.3467,0 2.4133,0.39333 3.2,1.18c0.8,0.77333 1.2,1.91333 1.2,3.42l0,6.1l-1.92,0l0,-5.88c0,-1.02667 -0.2467,-1.8 -0.74,-2.32c-0.4933,-0.52 -1.2,-0.78 -2.12,-0.78c-1.04,0 -1.86,0.30667 -2.46,0.92c-0.6,0.6 -0.9,1.46667 -0.9,2.6l0,5.46l-1.92,0l0,-10.6l1.84,0l0,1.6c0.3867,-0.54667 0.9067,-0.96667 1.56,-1.26c0.6667,-0.29333 1.42,-0.44 2.26,-0.44zm7.6933,-3.3l2.26,0l-0.38,9.58l-1.52,0l-0.36,-9.58zm1.14,14.12c-0.3734,0 -0.6867,-0.12 -0.94,-0.36c-0.2534,-0.2533 -0.38,-0.56 -0.38,-0.92c0,-0.36 0.1266,-0.66 0.38,-0.9c0.2533,-0.2533 0.5666,-0.38 0.94,-0.38c0.3733,0 0.68,0.1267 0.92,0.38c0.24,0.24 0.36,0.54 0.36,0.9c0,0.36 -0.1267,0.6667 -0.38,0.92c-0.24,0.24 -0.54,0.36 -0.9,0.36z" id="Try again!"/> -->
  </g>
  <text stroke="#000" transform="matrix(1.045902132987976,0,0,1,-1.7672321200370789,0) " xml:space="preserve" text-anchor="start" font-family="Helvetica, Arial, sans-serif" font-size="24" id="svg_3" y="101.453125" x="77.700608" stroke-width="0" fill="#000000">Попробуй</text>
  <text xml:space="preserve" text-anchor="start" font-family="Helvetica, Arial, sans-serif" font-size="24" id="svg_4" y="138.453125" x="110.5" fill-opacity="null" stroke-opacity="null" stroke-width="0" stroke="#000" fill="#000000">ещё</text>
 </g>
</svg>