<svg width="280" height="230" xmlns="http://www.w3.org/2000/svg">
 <defs>
  <filter color-interpolation-filters="sRGB" filterUnits="userSpaceOnUse" height="242" width="276" y="13" x="-2" id="filter0_d_189_11287">
   <feGaussianBlur stdDeviation="22"/>
  </filter>
  <clipPath id="clip0_189_11287">
   <rect id="svg_1" fill="white" height="230" width="280"/>
  </clipPath>
  <linearGradient y2="-0.13457" x2="0.262209" y1="1.025307" x1="0.637953" id="paint0_linear_189_11287">
   <stop stop-color="#B3DAFE"/>
   <stop stop-opacity="0" stop-color="#EEF7FF" offset="1"/>
  </linearGradient>
 </defs>
 <g>
  <title>background</title>
  <rect fill="none" id="canvas_background" height="402" width="582" y="-1" x="-1"/>
 </g>
 <g>
  <title>Layer 1</title>
  <g clip-path="url(#clip0_189_11287)" id="Frame">
   <g filter="url(#filter0_d_189_11287)" id="Vector">
    <path id="svg_2" fill="white" d="m229.964,128.519c-0.75,-16.803 -13.033,-30.3603 -28.862,-33.3786c0.237,-1.7541 0.323,-3.5532 0.241,-5.3851c-0.737,-16.5016 -14.71,-29.282 -31.21,-28.5443c-6.441,0.2869 -12.316,2.5922 -17.038,6.2785c-1.871,-8.6104 -9.72,-14.8766 -18.817,-14.4709c-7.079,0.3156 -13.045,4.5901 -15.86,10.5899c-6.651,-4.6536 -14.828,-7.2355 -23.564,-6.8441c-21.0602,0.9406 -37.3671,18.7761 -36.4266,39.837c0.1168,2.6127 0.4937,5.1516 1.1043,7.5936c-10.7872,4.906 -18.0627,16.006 -17.5013,28.571c0.7376,16.502 14.7108,29.282 31.2102,28.545c3.5097,-0.158 6.8514,-0.914 9.9288,-2.166c-0.0328,0.83 -0.0308,1.668 0.0061,2.514c0.7376,16.502 14.7108,29.282 31.2105,28.544c7.466,-0.334 14.633,-3.508 19.894,-8.815c0.961,-0.969 1.936,-2.041 2.821,-3.191c2.609,4.183 6.086,8.783 10.71,13.246c8.742,8.434 18.067,12.983 24.928,15.457c1.545,0.557 2.803,-1.332 1.687,-2.535c-4.926,-5.312 -11.04,-13.479 -15.08,-24.723c-1.061,-2.953 -1.869,-5.815 -2.481,-8.545c3.27,5.482 9.256,9.156 16.102,9.156c9.027,0 16.561,-6.385 18.341,-14.885c1.52,0.248 3.075,0.373 4.686,0.301c19.638,-0.879 34.847,-17.512 33.97,-37.15z"/>
    <path id="svg_3" stroke="url(#paint0_linear_189_11287)" d="m174.426,204.365c1.116,1.203 -0.142,3.092 -1.687,2.535l1.687,-2.535zm0,0c-4.926,-5.312 -11.04,-13.479 -15.08,-24.723l15.08,24.723zm26.18,-109.2917l-0.063,0.4695l0.465,0.0887c15.607,2.976 27.717,16.3435 28.456,32.9095c0.865,19.363 -14.13,35.762 -33.492,36.629c-1.57,0.07 -3.09,-0.052 -4.583,-0.296l-0.472,-0.077l-0.098,0.468c-1.733,8.274 -9.067,14.488 -17.852,14.488c-6.662,0 -12.489,-3.575 -15.673,-8.912l-0.917,0.366c0.617,2.748 1.43,5.631 2.498,8.604c4.069,11.323 10.225,19.547 15.184,24.894l0,0c0.755,0.813 -0.091,2.106 -1.15,1.724l0,0c-6.815,-2.456 -16.072,-6.973 -24.751,-15.346c-4.591,-4.43 -8.043,-8.997 -10.632,-13.15l-0.381,-0.611l-0.44,0.57c-0.869,1.129 -1.829,2.185 -2.78,3.144c-5.173,5.218 -12.221,8.339 -19.562,8.668c-16.2229,0.725 -29.9624,-11.841 -30.6879,-28.067c-0.0363,-0.832 -0.0383,-1.657 -0.0061,-2.473l0.0306,-0.775l-0.7186,0.293c-3.0252,1.23 -6.3108,1.974 -9.7627,2.129c-16.2235,0.726 -29.9632,-11.841 -30.6884,-28.067c-0.552,-12.354 6.601,-23.269 17.2088,-28.093l0.3791,-0.173l-0.101,-0.404c-0.6025,-2.41 -0.9746,-4.9159 -1.0899,-7.4949c-0.9281,-20.7851 15.1652,-38.3869 35.9494,-39.3152l0.0001,0c8.6226,-0.3862 16.6916,2.1615 23.2546,6.7543l0.487,0.3407l0.253,-0.538c2.739,-5.8384 8.544,-9.9958 15.429,-10.3028c8.85,-0.3947 16.486,5.7011 18.306,14.0776l0.169,0.7776l0.628,-0.4896c4.643,-3.6246 10.418,-5.8911 16.752,-6.1732l-0.022,-0.4995l0.022,0.4995c16.224,-0.7253 29.964,11.8413 30.689,28.0671c0.08,1.8017 -0.004,3.5708 -0.238,5.2957z"/>
   </g>
   <!-- <path id="Well done!" d="M100.474 116L95.7938 130H93.6938L89.8738 118.82L86.0538 130H83.9138L79.2338 116H81.2938L85.0738 127.38L89.0138 116H90.8538L94.7138 127.44L98.5738 116H100.474ZM111.42 124.76C111.42 124.907 111.406 125.1 111.38 125.34H102.78C102.9 126.273 103.306 127.027 104 127.6C104.706 128.16 105.58 128.44 106.62 128.44C107.886 128.44 108.906 128.013 109.68 127.16L110.74 128.4C110.26 128.96 109.66 129.387 108.94 129.68C108.233 129.973 107.44 130.12 106.56 130.12C105.44 130.12 104.446 129.893 103.58 129.44C102.713 128.973 102.04 128.327 101.56 127.5C101.093 126.673 100.86 125.74 100.86 124.7C100.86 123.673 101.086 122.747 101.54 121.92C102.006 121.093 102.64 120.453 103.44 120C104.253 119.533 105.166 119.3 106.18 119.3C107.193 119.3 108.093 119.533 108.88 120C109.68 120.453 110.3 121.093 110.74 121.92C111.193 122.747 111.42 123.693 111.42 124.76ZM106.18 120.92C105.26 120.92 104.486 121.2 103.86 121.76C103.246 122.32 102.886 123.053 102.78 123.96H109.58C109.473 123.067 109.106 122.34 108.48 121.78C107.866 121.207 107.1 120.92 106.18 120.92ZM114.086 115.16H116.006V130H114.086V115.16ZM119.672 115.16H121.592V130H119.672V115.16ZM140.629 115.16V130H138.789V128.32C138.362 128.907 137.822 129.353 137.169 129.66C136.515 129.967 135.795 130.12 135.009 130.12C133.982 130.12 133.062 129.893 132.249 129.44C131.435 128.987 130.795 128.353 130.329 127.54C129.875 126.713 129.649 125.767 129.649 124.7C129.649 123.633 129.875 122.693 130.329 121.88C130.795 121.067 131.435 120.433 132.249 119.98C133.062 119.527 133.982 119.3 135.009 119.3C135.769 119.3 136.469 119.447 137.109 119.74C137.749 120.02 138.282 120.44 138.709 121V115.16H140.629ZM135.169 128.44C135.835 128.44 136.442 128.287 136.989 127.98C137.535 127.66 137.962 127.22 138.269 126.66C138.575 126.087 138.729 125.433 138.729 124.7C138.729 123.967 138.575 123.32 138.269 122.76C137.962 122.187 137.535 121.747 136.989 121.44C136.442 121.133 135.835 120.98 135.169 120.98C134.489 120.98 133.875 121.133 133.329 121.44C132.795 121.747 132.369 122.187 132.049 122.76C131.742 123.32 131.589 123.967 131.589 124.7C131.589 125.433 131.742 126.087 132.049 126.66C132.369 127.22 132.795 127.66 133.329 127.98C133.875 128.287 134.489 128.44 135.169 128.44ZM148.801 130.12C147.748 130.12 146.801 129.887 145.961 129.42C145.121 128.953 144.461 128.313 143.981 127.5C143.515 126.673 143.281 125.74 143.281 124.7C143.281 123.66 143.515 122.733 143.981 121.92C144.461 121.093 145.121 120.453 145.961 120C146.801 119.533 147.748 119.3 148.801 119.3C149.855 119.3 150.795 119.533 151.621 120C152.461 120.453 153.115 121.093 153.581 121.92C154.061 122.733 154.301 123.66 154.301 124.7C154.301 125.74 154.061 126.673 153.581 127.5C153.115 128.313 152.461 128.953 151.621 129.42C150.795 129.887 149.855 130.12 148.801 130.12ZM148.801 128.44C149.481 128.44 150.088 128.287 150.621 127.98C151.168 127.66 151.595 127.22 151.901 126.66C152.208 126.087 152.361 125.433 152.361 124.7C152.361 123.967 152.208 123.32 151.901 122.76C151.595 122.187 151.168 121.747 150.621 121.44C150.088 121.133 149.481 120.98 148.801 120.98C148.121 120.98 147.508 121.133 146.961 121.44C146.428 121.747 146.001 122.187 145.681 122.76C145.375 123.32 145.221 123.967 145.221 124.7C145.221 125.433 145.375 126.087 145.681 126.66C146.001 127.22 146.428 127.66 146.961 127.98C147.508 128.287 148.121 128.44 148.801 128.44ZM162.617 119.3C163.963 119.3 165.03 119.693 165.817 120.48C166.617 121.253 167.017 122.393 167.017 123.9V130H165.097V124.12C165.097 123.093 164.85 122.32 164.357 121.8C163.863 121.28 163.157 121.02 162.237 121.02C161.197 121.02 160.377 121.327 159.777 121.94C159.177 122.54 158.877 123.407 158.877 124.54V130H156.957V119.4H158.797V121C159.183 120.453 159.703 120.033 160.357 119.74C161.023 119.447 161.777 119.3 162.617 119.3ZM180.209 124.76C180.209 124.907 180.195 125.1 180.169 125.34H171.569C171.689 126.273 172.095 127.027 172.789 127.6C173.495 128.16 174.369 128.44 175.409 128.44C176.675 128.44 177.695 128.013 178.469 127.16L179.529 128.4C179.049 128.96 178.449 129.387 177.729 129.68C177.022 129.973 176.229 130.12 175.349 130.12C174.229 130.12 173.235 129.893 172.369 129.44C171.502 128.973 170.829 128.327 170.349 127.5C169.882 126.673 169.649 125.74 169.649 124.7C169.649 123.673 169.875 122.747 170.329 121.92C170.795 121.093 171.429 120.453 172.229 120C173.042 119.533 173.955 119.3 174.969 119.3C175.982 119.3 176.882 119.533 177.669 120C178.469 120.453 179.089 121.093 179.529 121.92C179.982 122.747 180.209 123.693 180.209 124.76ZM174.969 120.92C174.049 120.92 173.275 121.2 172.649 121.76C172.035 122.32 171.675 123.053 171.569 123.96H178.369C178.262 123.067 177.895 122.34 177.269 121.78C176.655 121.207 175.889 120.92 174.969 120.92ZM182.615 116H184.875L184.495 125.58H182.975L182.615 116ZM183.755 130.12C183.381 130.12 183.068 130 182.815 129.76C182.561 129.507 182.435 129.2 182.435 128.84C182.435 128.48 182.561 128.18 182.815 127.94C183.068 127.687 183.381 127.56 183.755 127.56C184.128 127.56 184.435 127.687 184.675 127.94C184.915 128.18 185.035 128.48 185.035 128.84C185.035 129.2 184.908 129.507 184.655 129.76C184.415 130 184.115 130.12 183.755 130.12Z" fill="#434553"/> -->
  </g>
  <text xml:space="preserve" text-anchor="start" font-family="Helvetica, Arial, sans-serif" font-size="24" id="svg_4" y="129.453125" x="80.5" stroke-width="0" stroke="#000" fill="#000000">Молодец!</text>
 </g>
</svg>